<svg xmlns="http://www.w3.org/2000/svg" xmlns:xlink="http://www.w3.org/1999/xlink" width="114" height="113" viewBox="0 0 114 113">
  <defs>
    <linearGradient id="linear-gradient" x1="0.883" y1="0.089" x2="0.1" y2="0.947" gradientUnits="objectBoundingBox">
      <stop offset="0" stop-color="#01ccb8"/>
      <stop offset="1" stop-color="#00ac9b"/>
    </linearGradient>
    <filter id="Ellipse_755" x="0" y="0" width="114" height="113" filterUnits="userSpaceOnUse">
      <feOffset dx="2.5" dy="5" input="SourceAlpha"/>
      <feGaussianBlur stdDeviation="10" result="blur"/>
      <feFlood flood-opacity="0.161"/>
      <feComposite operator="in" in2="blur"/>
      <feComposite in="SourceGraphic"/>
    </filter>
  </defs>
  <g id="Group_6606" data-name="Group 6606" transform="translate(-262.5 -495)">
    <g transform="matrix(1, 0, 0, 1, 262.5, 495)" filter="url(#Ellipse_755)">
      <g id="Ellipse_755-2" data-name="Ellipse 755" transform="translate(27.5 25)" stroke="#fff" stroke-width="1" fill="url(#linear-gradient)">
        <ellipse cx="27" cy="26.5" rx="27" ry="26.5" stroke="none"/>
        <ellipse cx="27" cy="26.5" rx="26.5" ry="26" fill="none"/>
      </g>
    </g>
    <g id="Add" transform="translate(303.999 533.87)">
      <path id="Subtraction_8" data-name="Subtraction 8" d="M-1302.685-2764.249c-.13,0-.257,0-.378-.009a12.674,12.674,0,0,1-8.784-4.362,12.807,12.807,0,0,1-3.124-9.313,12.782,12.782,0,0,1,4-8.511,12.646,12.646,0,0,1,8.682-3.426c.289,0,.582.01.872.029a12.674,12.674,0,0,1,8.784,4.362,12.807,12.807,0,0,1,3.124,9.313,8.008,8.008,0,0,1-.354,2.24,3.592,3.592,0,0,0,.118,2.24l2.594,5.659a.673.673,0,0,1-.008.631.558.558,0,0,1-.484.217,1.113,1.113,0,0,1-.216-.022l-5.423-1.061a2.932,2.932,0,0,0-.555-.046,4.036,4.036,0,0,0-1.567.282c-.292.117-.678.265-1.051.409l-.01,0c-.412.158-.777.3-1.061.413A19.909,19.909,0,0,1-1302.685-2764.249Zm-.315-11.491v6h2v-6h6v-2h-6v-6h-2v6h-6v2Z" transform="translate(1315 2789.871)" fill="#fff"/>
    </g>
  </g>
</svg>
