<svg id="Plus_Icon" data-name="Plus Icon" xmlns="http://www.w3.org/2000/svg" width="56" height="56" viewBox="0 0 56 56">
  <path id="Path_1076" data-name="Path 1076" d="M52.246,13.945a27.883,27.883,0,0,0-10.19-10.19A27.389,27.389,0,0,0,28,0,27.389,27.389,0,0,0,13.946,3.755a27.875,27.875,0,0,0-10.19,10.19A27.388,27.388,0,0,0,0,28,27.394,27.394,0,0,0,3.755,42.055a27.882,27.882,0,0,0,10.19,10.19A27.392,27.392,0,0,0,28,56a27.392,27.392,0,0,0,14.055-3.755,27.875,27.875,0,0,0,10.19-10.19A27.393,27.393,0,0,0,56,28,27.4,27.4,0,0,0,52.246,13.945ZM44.334,30.333A2.367,2.367,0,0,1,42,32.667H32.667V42a2.366,2.366,0,0,1-2.334,2.334H25.667A2.365,2.365,0,0,1,23.333,42V32.667H14a2.366,2.366,0,0,1-2.333-2.334V25.666A2.366,2.366,0,0,1,14,23.333h9.334V14a2.366,2.366,0,0,1,2.333-2.333h4.667A2.366,2.366,0,0,1,32.668,14v9.333H42a2.367,2.367,0,0,1,2.334,2.333Z" transform="translate(0 0)" fill="#ebebeb"/>
</svg>
