<svg id="Skillz_Icon" data-name="Skillz Icon" xmlns="http://www.w3.org/2000/svg" xmlns:xlink="http://www.w3.org/1999/xlink" width="104" height="104" viewBox="0 0 104 104">
  <defs>
    <linearGradient id="linear-gradient" x1="0.222" y1="0.802" x2="1.182" y2="-0.174" gradientUnits="objectBoundingBox">
      <stop offset="0" stop-color="#06dbdb"/>
      <stop offset="1" stop-color="#2ce4c5"/>
    </linearGradient>
  </defs>
  <rect id="Rectangle_1729" data-name="Rectangle 1729" width="104" height="104" fill="none"/>
  <g id="Group_4983" data-name="Group 4983" transform="translate(16.685 23.358)">
    <g id="Group_4975" data-name="Group 4975" transform="translate(0)">
      <path id="Path_79" data-name="Path 79" d="M6010.98,2816.247a4.3,4.3,0,0,0-2.9-3.439,4.052,4.052,0,0,0-2.341-.1l-20.458,5.426a17.894,17.894,0,0,1,12.548,5.418,18.374,18.374,0,0,1,4.061,5.991,17.7,17.7,0,0,1,1.282,5.228l7.47-16.228A3.826,3.826,0,0,0,6010.98,2816.247Zm-36.836,5.176-21.47,5.857a3.881,3.881,0,0,0-2,1.239,4.353,4.353,0,0,0-.793,4.484,4.093,4.093,0,0,0,1.453,1.88l18.238,12.86-2.134-4.523a15.523,15.523,0,0,1-1.23-6.567,17.946,17.946,0,0,1,5.426-13.1A20.067,20.067,0,0,1,5974.145,2821.423Zm22,3.826a15.431,15.431,0,0,0-11.405-4.73,16.14,16.14,0,0,0-16.131,16.134,13.161,13.161,0,0,0,1,5.55l3.2,6.793.731,1.545,8.422,17.858a2.712,2.712,0,0,0,1.107,1.244,3.187,3.187,0,0,0,3.335,0,2.92,2.92,0,0,0,1.148-1.258l10.176-21.645,2.134-4.536a8.7,8.7,0,0,0,.458-1.212,16.456,16.456,0,0,0-4.178-15.743Zm-18.379,4.433a9.86,9.86,0,1,1,13.944,13.944,9.717,9.717,0,0,1-3.189,2.161,9.817,9.817,0,0,1-3.781.726,9.857,9.857,0,0,1-6.974-16.831Z" transform="translate(-5949.576 -2812.582)" fill="url(#linear-gradient)"/>
    </g>
  </g>
</svg>
