<svg xmlns="http://www.w3.org/2000/svg" xmlns:xlink="http://www.w3.org/1999/xlink" width="284.17" height="251.712" viewBox="0 0 284.17 251.712">
  <defs>
    <linearGradient id="linear-gradient" x1="0.505" y1="1.007" x2="0.505" gradientUnits="objectBoundingBox">
      <stop offset="0" stop-color="gray" stop-opacity="0.251"/>
      <stop offset="0.54" stop-color="gray" stop-opacity="0.122"/>
      <stop offset="1" stop-color="gray" stop-opacity="0.102"/>
    </linearGradient>
  </defs>
  <g id="undraw_order_confirmed_1m3v" transform="translate(-19.776 -28.687)">
    <g id="Particles" transform="translate(32.16 28.687)">
      <g id="Group_5829" data-name="Group 5829" transform="translate(240.262 237.728) rotate(180)" opacity="0.7">
        <rect id="Rectangle_1707" data-name="Rectangle 1707" width="1.055" height="5.977" transform="translate(2.461)" fill="#fff"/>
        <rect id="Rectangle_1708" data-name="Rectangle 1708" width="1.055" height="5.977" transform="translate(5.977 2.461) rotate(90)" fill="#fff"/>
      </g>
      <g id="Group_5830" data-name="Group 5830" transform="translate(17.164 5.977) rotate(180)" opacity="0.7">
        <rect id="Rectangle_1709" data-name="Rectangle 1709" width="1.055" height="5.977" transform="translate(2.461)" fill="#47e6b1"/>
        <rect id="Rectangle_1710" data-name="Rectangle 1710" width="1.055" height="5.977" transform="translate(5.977 2.461) rotate(90)" fill="#47e6b1"/>
      </g>
      <g id="Group_5831" data-name="Group 5831" transform="translate(16.746 180.084) rotate(180)" opacity="0.7">
        <rect id="Rectangle_1711" data-name="Rectangle 1711" width="1.055" height="5.977" transform="translate(2.461)" fill="#fff"/>
        <rect id="Rectangle_1712" data-name="Rectangle 1712" width="1.055" height="5.977" transform="translate(5.977 2.461) rotate(90)" fill="#fff"/>
      </g>
      <g id="Group_5832" data-name="Group 5832" transform="translate(5.977 235.355) rotate(180)" opacity="0.7">
        <rect id="Rectangle_1713" data-name="Rectangle 1713" width="1.055" height="5.977" transform="translate(2.461)" fill="#fff"/>
        <rect id="Rectangle_1714" data-name="Rectangle 1714" width="1.055" height="5.977" transform="translate(5.977 2.461) rotate(90)" fill="#fff"/>
      </g>
      <g id="Group_5833" data-name="Group 5833" transform="translate(189.657 238.228) rotate(180)" opacity="0.7">
        <rect id="Rectangle_1715" data-name="Rectangle 1715" width="1.055" height="5.977" transform="translate(2.464)" fill="#fff"/>
        <rect id="Rectangle_1716" data-name="Rectangle 1716" width="1.055" height="5.977" transform="translate(5.977 2.461) rotate(90)" fill="#fff"/>
      </g>
      <path id="Path_7270" data-name="Path 7270" d="M4.356,2.43A1.292,1.292,0,0,1,3.637.869.638.638,0,0,0,3.666.726h0A.633.633,0,0,0,2.5.3h0A.633.633,0,0,0,2.43.422a1.292,1.292,0,0,1-1.562.719.63.63,0,0,0-.142-.028h0A.633.633,0,0,0,.3,2.275h0a.634.634,0,0,0,.127.073A1.292,1.292,0,0,1,1.141,3.91a.632.632,0,0,0-.029.143h0a.633.633,0,0,0,1.162.431h0a.636.636,0,0,0,.073-.127A1.292,1.292,0,0,1,3.91,3.637a.631.631,0,0,0,.142.029h0A.634.634,0,0,0,4.483,2.5h0A.624.624,0,0,0,4.356,2.43Z" transform="translate(256.755 151.361) rotate(180)" fill="#fff" opacity="0.7"/>
      <path id="Path_7271" data-name="Path 7271" d="M4.356,2.43A1.292,1.292,0,0,1,3.637.869.631.631,0,0,0,3.666.726h0A.633.633,0,0,0,2.5.3h0A.638.638,0,0,0,2.43.422a1.292,1.292,0,0,1-1.561.719.637.637,0,0,0-.143-.029h0A.634.634,0,0,0,.3,2.275h0a.642.642,0,0,0,.127.073A1.292,1.292,0,0,1,1.141,3.91a.636.636,0,0,0-.029.142h0a.633.633,0,0,0,1.162.431h0a.636.636,0,0,0,.073-.127A1.292,1.292,0,0,1,3.91,3.637a.618.618,0,0,0,.142.029h0A.634.634,0,0,0,4.483,2.5h0A.632.632,0,0,0,4.356,2.43Z" transform="translate(237.282 31.526) rotate(180)" fill="#fff" opacity="0.7"/>
      <path id="Path_7272" data-name="Path 7272" d="M4.356,2.43A1.292,1.292,0,0,1,3.637.869.625.625,0,0,0,3.666.726h0A.633.633,0,0,0,2.5.3h0A.622.622,0,0,0,2.43.422a1.292,1.292,0,0,1-1.561.719.635.635,0,0,0-.143-.029h0A.634.634,0,0,0,.3,2.275h0a.636.636,0,0,0,.127.073A1.292,1.292,0,0,1,1.141,3.91a.624.624,0,0,0-.028.142h0a.633.633,0,0,0,1.162.431h0a.634.634,0,0,0,.073-.127,1.292,1.292,0,0,1,1.562-.719.634.634,0,0,0,.143.028h0A.634.634,0,0,0,4.483,2.5h0A.635.635,0,0,0,4.356,2.43Z" transform="translate(60.226 190.212) rotate(180)" fill="#fff" opacity="0.7"/>
      <path id="Path_7273" data-name="Path 7273" d="M4.356,2.43A1.292,1.292,0,0,1,3.637.869.633.633,0,0,0,3.666.726h0A.633.633,0,0,0,2.5.3h0A.617.617,0,0,0,2.43.422a1.292,1.292,0,0,1-1.562.719.633.633,0,0,0-.142-.028h0A.634.634,0,0,0,.3,2.275h0a.629.629,0,0,0,.127.073A1.292,1.292,0,0,1,1.141,3.91a.649.649,0,0,0-.029.143h0a.634.634,0,0,0,1.163.431h0a.638.638,0,0,0,.073-.127A1.292,1.292,0,0,1,3.91,3.637a.629.629,0,0,0,.142.028h0A.633.633,0,0,0,4.483,2.5h0A.627.627,0,0,0,4.356,2.43Z" transform="translate(62.585 161.581) rotate(180)" fill="#fff" opacity="0.7"/>
      <path id="Path_7274" data-name="Path 7274" d="M4.353,2.43A1.292,1.292,0,0,1,3.634.869.647.647,0,0,0,3.663.726h0A.633.633,0,0,0,2.5.3h0a.632.632,0,0,0-.073.127,1.292,1.292,0,0,1-1.558.722.635.635,0,0,0-.143-.029h0A.634.634,0,0,0,.3,2.278h0a.634.634,0,0,0,.127.073,1.292,1.292,0,0,1,.719,1.562.627.627,0,0,0-.028.143h0a.633.633,0,0,0,1.162.431h0a.635.635,0,0,0,.073-.127A1.292,1.292,0,0,1,3.9,3.621a.634.634,0,0,0,.143.029h0A.633.633,0,0,0,4.47,2.487h0A.63.63,0,0,0,4.353,2.43Z" transform="translate(62.414 248.326) rotate(180)" fill="#fff" opacity="0.7"/>
      <path id="Path_7275" data-name="Path 7275" d="M4.356,2.43A1.292,1.292,0,0,1,3.637.869.635.635,0,0,0,3.666.726h0A.633.633,0,0,0,2.5.3h0A.639.639,0,0,0,2.43.422a1.292,1.292,0,0,1-1.562.719.632.632,0,0,0-.142-.029h0A.634.634,0,0,0,.3,2.275h0a.635.635,0,0,0,.127.073,1.292,1.292,0,0,1,.716,1.577.634.634,0,0,0-.029.142h0A.634.634,0,0,0,2.272,4.5h0a.634.634,0,0,0,.073-.127,1.292,1.292,0,0,1,1.561-.719.643.643,0,0,0,.143.029h0A.633.633,0,0,0,4.48,2.519h0A.63.63,0,0,0,4.356,2.43Z" transform="translate(9.155 103.564) rotate(180)" fill="#fff" opacity="0.7"/>
      <ellipse id="Ellipse_694" data-name="Ellipse 694" cx="2.109" cy="2.109" rx="2.109" ry="2.109" transform="translate(254.331 197.783) rotate(180)" fill="#fff" opacity="0.7"/>
      <ellipse id="Ellipse_695" data-name="Ellipse 695" cx="2.109" cy="2.109" rx="2.109" ry="2.109" transform="translate(269.798 46.284) rotate(180)" fill="#fff" opacity="0.7"/>
      <ellipse id="Ellipse_696" data-name="Ellipse 696" cx="2.109" cy="2.109" rx="2.109" ry="2.109" transform="translate(134.639 237.357) rotate(180)" fill="#fff" opacity="0.7"/>
      <ellipse id="Ellipse_697" data-name="Ellipse 697" cx="2.109" cy="2.109" rx="2.109" ry="2.109" transform="translate(113.418 195.705) rotate(180)" fill="#fff" opacity="0.7"/>
      <ellipse id="Ellipse_698" data-name="Ellipse 698" cx="2.109" cy="2.109" rx="2.109" ry="2.109" transform="translate(271.787 100.209) rotate(180)" fill="#fff" opacity="0.7"/>
      <ellipse id="Ellipse_699" data-name="Ellipse 699" cx="2.109" cy="2.109" rx="2.109" ry="2.109" transform="translate(189.169 202.623) rotate(180)" fill="#fff" opacity="0.7"/>
      <ellipse id="Ellipse_700" data-name="Ellipse 700" cx="2.109" cy="2.109" rx="2.109" ry="2.109" transform="translate(44.071 62.495) rotate(180)" fill="#fff" opacity="0.7"/>
    </g>
    <ellipse id="Ellipse_622" data-name="Ellipse 622" cx="87.721" cy="13.864" rx="87.721" ry="13.864" transform="translate(76.461 243.922)" fill="#01ccb8" opacity="0.5"/>
    <g id="Group_5836" data-name="Group 5836" transform="translate(115.54 48.4)">
      <rect id="Rectangle_1345" data-name="Rectangle 1345" width="2.987" height="24.619" rx="0.569" transform="translate(99.331 46.073)" fill="#252a56"/>
      <rect id="Rectangle_1346" data-name="Rectangle 1346" width="1.676" height="8.105" rx="0.569" transform="translate(0.061 26.784)" fill="#252a56"/>
      <rect id="Rectangle_1347" data-name="Rectangle 1347" width="1.888" height="14.107" rx="0.569" transform="translate(0 41.626)" fill="#252a56"/>
      <rect id="Rectangle_1348" data-name="Rectangle 1348" width="1.797" height="14.228" rx="0.569" transform="translate(0.03 60.668)" fill="#252a56"/>
      <rect id="Rectangle_1349" data-name="Rectangle 1349" width="99.935" height="203.101" rx="9.686" transform="translate(1.008)" fill="#252a56"/>
      <rect id="Rectangle_1350" data-name="Rectangle 1350" width="13.955" height="2.832" rx="0.961" transform="translate(41.336 6.065)" fill="#e0e2e7"/>
      <ellipse id="Ellipse_474" data-name="Ellipse 474" cx="1.608" cy="1.608" rx="1.608" ry="1.608" transform="translate(57.402 5.873)" fill="#e0e2e7"/>
    </g>
    <rect id="Rectangle_1612" data-name="Rectangle 1612" width="1.676" height="8.105" rx="0.838" transform="translate(115.6 75.737)" fill="#3a3768"/>
    <rect id="Rectangle_1613" data-name="Rectangle 1613" width="1.888" height="14.107" rx="0.944" transform="translate(115.539 90.578)" fill="#3a3768"/>
    <rect id="Rectangle_1614" data-name="Rectangle 1614" width="1.797" height="14.228" rx="0.899" transform="translate(115.569 109.621)" fill="#3a3768"/>
    <path id="Path_6921" data-name="Path 6921" d="M544.384,199H532.92v1.379a6.534,6.534,0,0,1-6.538,6.534H489.926a6.534,6.534,0,0,1-6.537-6.534V199H472.657a7.937,7.937,0,0,0-7.937,7.937V383.6a7.937,7.937,0,0,0,7.937,7.937h71.727a7.937,7.937,0,0,0,7.937-7.937V206.95a7.937,7.937,0,0,0-7.937-7.95Z" transform="translate(-341.999 -144.77)" fill="#fff"/>
    <path id="Path_6922" data-name="Path 6922" d="M795.656,156.857s-28.389-1.713-25.044,18.179a4.834,4.834,0,0,0,2.522,5.111s.051-1.473,2.913-.971a13.317,13.317,0,0,0,3.085.148,6.426,6.426,0,0,0,3.769-1.541h0s7.98-3.3,11.082-16.339c0,0,2.3-2.846,2.2-3.577l-4.791,2.047s1.638,3.456.337,6.328c0,0-.155-6.2-1.076-6.069-.185.027-2.488,1.2-2.488,1.2s2.815,6.018.691,10.394c0,0,.806-7.417-1.571-9.96l-3.372,1.969s3.291,6.217,1.059,11.291c0,0,.573-7.782-1.77-10.813l-3.055,2.384s3.092,6.126,1.207,10.334c0,0-.246-9.056-1.868-9.74,0,0-2.674,2.36-3.082,3.324,0,0,2.117,4.45.8,6.8,0,0-.806-6.035-1.467-6.069,0,0-2.664,4-2.94,6.743a14.529,14.529,0,0,1,2.3-7.121,8.027,8.027,0,0,0-4.08,2.111s.415-2.825,4.737-3.075c0,0,2.2-3.034,2.788-3.216,0,0-4.3-.361-6.9.8,0,0,2.293-2.667,7.691-1.453l3.018-2.465s-5.657-.772-8.058.081c0,0,2.761-2.36,8.871-.641l3.284-1.962s-4.825-1.038-7.7-.674c0,0,3.034-1.635,8.662.138l2.36-1.055s-3.533-.695-4.568-.806-1.089-.394-1.089-.394a12.256,12.256,0,0,1,6.639.738S795.74,157.171,795.656,156.857Z" transform="translate(-544.576 -116.812)" fill="#01ccb8"/>
    <path id="Path_6923" data-name="Path 6923" d="M736.576,130.657s-12.812-.772-11.315,8.216a2.193,2.193,0,0,0,1.14,2.309s.024-.674,1.318-.442a5.9,5.9,0,0,0,1.393.067,2.886,2.886,0,0,0,1.7-.7h0s3.608-1.49,5.01-7.384c0,0,1.035-1.285.995-1.615l-2.164.924a3.89,3.89,0,0,1,.158,2.859s-.071-2.8-.485-2.738c-.084,0-1.126.543-1.126.543s1.275,2.721.314,4.7c0,0,.364-3.351-.711-4.5l-1.524.9s1.487,2.808.479,5.1c0,0,.26-3.516-.8-4.885l-1.379,1.079s1.4,2.768.546,4.67c0,0-.115-4.093-.846-4.4a8.453,8.453,0,0,0-1.392,1.5s.958,2.023.364,3.071c0,0-.364-2.728-.674-2.741a9.076,9.076,0,0,0-1.328,3.034,6.582,6.582,0,0,1,1.038-3.216,3.628,3.628,0,0,0-1.844.954s.189-1.278,2.141-1.389a9.219,9.219,0,0,1,1.261-1.457,7.906,7.906,0,0,0-3.119.361s1.035-1.2,3.473-.657l1.349-1.113a11.637,11.637,0,0,0-3.641.037s1.247-1.065,4.009-.29l1.484-.887a13.511,13.511,0,0,0-3.479-.3,5.344,5.344,0,0,1,3.914.061l1.062-.475s-1.6-.314-2.067-.364-.492-.179-.492-.179a5.526,5.526,0,0,1,3,.337A13.725,13.725,0,0,0,736.576,130.657Z" transform="translate(-514.616 -99.459)" fill="#01ccb8"/>
    <ellipse id="Ellipse_624" data-name="Ellipse 624" cx="9.08" cy="1.534" rx="9.08" ry="1.534" transform="translate(280.426 256.512)" fill="#01ccb8" opacity="0.1"/>
    <ellipse id="Ellipse_625" data-name="Ellipse 625" cx="9.08" cy="1.534" rx="9.08" ry="1.534" transform="translate(19.776 269.101)" fill="#01ccb8" opacity="0.1"/>
    <ellipse id="Ellipse_626" data-name="Ellipse 626" cx="9.08" cy="1.534" rx="9.08" ry="1.534" transform="translate(54.898 277.331)" fill="#01ccb8" opacity="0.1"/>
    <ellipse id="Ellipse_627" data-name="Ellipse 627" cx="13.557" cy="2.293" rx="13.557" ry="2.293" transform="translate(256.073 272.193)" fill="#01ccb8"/>
    <path id="Path_6924" data-name="Path 6924" d="M892.428,828.875a3.949,3.949,0,0,0,1.291-1.952,1.741,1.741,0,0,0-.9-1.986c-.83-.317-1.716.26-2.387.84a3.188,3.188,0,0,1-2.323,1.119,3.533,3.533,0,0,0,1.1-3.307,1.392,1.392,0,0,0-.307-.674c-.459-.492-1.295-.283-1.844.108-1.753,1.231-2.242,3.614-2.252,5.755a10.822,10.822,0,0,1-.034-2.36,2.438,2.438,0,0,0-.89-2.1,2.676,2.676,0,0,0-1.349-.317,2.807,2.807,0,0,0-2.2.627,2.173,2.173,0,0,0,.088,2.7,8.579,8.579,0,0,0,2.283,1.827,5.06,5.06,0,0,1,1.628,1.554,1.405,1.405,0,0,1,.121.28h4.926A13.845,13.845,0,0,0,892.428,828.875Z" transform="translate(-617.191 -558.139)" fill="#01ccb8"/>
    <path id="Path_6925" data-name="Path 6925" d="M281.855,753.45s1.854,2.424-.853,6.069-4.939,6.743-4.046,9.026c0,0,4.086-6.794,7.417-6.888S285.514,757.536,281.855,753.45Z" transform="translate(-217.409 -512.285)" fill="#01ccb8"/>
    <path id="Path_6926" data-name="Path 6926" d="M282.07,753.45a2.977,2.977,0,0,1,.378.762c3.243,3.81,4.973,7.367,1.854,7.455-2.9.084-6.386,5.276-7.222,6.588.027.1.061.2.1.3,0,0,4.086-6.794,7.417-6.888S285.728,757.536,282.07,753.45Z" transform="translate(-217.624 -512.285)" opacity="0.1"/>
    <path id="Path_6927" data-name="Path 6927" d="M301.255,761.536c0,.853-.094,1.544-.212,1.544s-.212-.691-.212-1.544.118-.452.236-.452S301.255,760.683,301.255,761.536Z" transform="translate(-233.366 -517.283)" fill="#ffd037"/>
    <path id="Path_6928" data-name="Path 6928" d="M302.729,764.477c-.749.408-1.4.654-1.457.55s.5-.519,1.251-.927.455-.111.509,0S303.478,764.069,302.729,764.477Z" transform="translate(-233.657 -519.206)" fill="#ffd037"/>
    <path id="Path_6929" data-name="Path 6929" d="M254.684,753.45s-1.854,2.424.853,6.069,4.939,6.743,4.046,9.026c0,0-4.083-6.794-7.418-6.888S251.019,757.536,254.684,753.45Z" transform="translate(-200.019 -512.285)" fill="#01ccb8"/>
    <path id="Path_6930" data-name="Path 6930" d="M254.669,753.45a3.034,3.034,0,0,0-.381.762c-3.243,3.81-4.97,7.367-1.854,7.454,2.906.084,6.389,5.276,7.225,6.588a2.618,2.618,0,0,1-.1.3s-4.083-6.794-7.417-6.888S251,757.536,254.669,753.45Z" transform="translate(-200.004 -512.285)" opacity="0.1"/>
    <path id="Path_6931" data-name="Path 6931" d="M252.65,761.536c0,.853.1,1.544.216,1.544s.212-.691.212-1.544-.118-.452-.236-.452S252.65,760.683,252.65,761.536Z" transform="translate(-201.43 -517.283)" fill="#ffd037"/>
    <path id="Path_6932" data-name="Path 6932" d="M248.253,764.477c.748.408,1.4.654,1.457.55s-.506-.519-1.254-.927-.452-.111-.509,0S247.5,764.069,248.253,764.477Z" transform="translate(-198.214 -519.206)" fill="#ffd037"/>
    <path id="Path_6933" data-name="Path 6933" d="M254.4,791.806s5.179-.162,6.743-1.271,7.967-2.441,8.351-.658,7.785,8.864,1.939,8.911-13.587-.91-15.145-1.858S254.4,791.806,254.4,791.806Z" transform="translate(-202.59 -535.854)" fill="#a8a8a8"/>
    <path id="Path_6934" data-name="Path 6934" d="M271.534,803.659c-5.846.047-13.587-.91-15.145-1.858-1.183-.725-1.659-3.318-1.817-4.511H254.4s.337,4.174,1.885,5.125,9.3,1.9,15.145,1.858c1.686,0,2.269-.614,2.239-1.5C273.433,803.315,272.789,803.649,271.534,803.659Z" transform="translate(-202.59 -541.344)" opacity="0.2"/>
    <path id="Path_6935" data-name="Path 6935" d="M377.46,474.88a.31.31,0,0,0,.367.047,1.3,1.3,0,0,1-.367-.047Z" transform="translate(-284.16 -327.636)" fill="url(#linear-gradient)"/>
    <path id="Path_7280" data-name="Path 7280" d="M30.108,32.643h0Z" transform="translate(86.051 76.101)" fill="#474463"/>
    <path id="Path_6954" data-name="Path 6954" d="M377.067,471.737a.293.293,0,0,1-.337-.047A1.168,1.168,0,0,0,377.067,471.737Z" transform="translate(-283.676 -325.522)" opacity="0.1"/>
    <ellipse id="Ellipse_629" data-name="Ellipse 629" cx="18.904" cy="18.904" rx="18.904" ry="18.904" transform="translate(148.22 134.091)" fill="#fff"/>
    <path id="Path_6967" data-name="Path 6967" d="M570.743,434.876a25.267,25.267,0,1,1-25.267-25.266A25.266,25.266,0,0,1,570.743,434.876Zm-28.186,13.375L561.3,429.509a1.628,1.628,0,0,0,0-2.306l-2.306-2.289a1.625,1.625,0,0,0-2.3,0L541.4,440.2l-7.138-7.154a1.635,1.635,0,0,0-2.306,0l-2.306,2.32a1.635,1.635,0,0,0,0,2.306l10.6,10.593a1.628,1.628,0,0,0,2.306,0Z" transform="translate(-378.781 -284.372)" fill="#12d23f"/>
  </g>
</svg>
