<svg xmlns="http://www.w3.org/2000/svg" width="250.783" height="208.578" viewBox="0 0 250.783 208.578">
  <g id="undraw_order_confirmed_1m3v" data-name="undraw order confirmed 1m3v" transform="translate(54.592 -293.477)">
    <path id="Path_6585" data-name="Path 6585" d="M91.116,321.151c-16.078-.559-31.39-5.748-46.011-11.427S16,297.753.308,294.745c-10.093-1.936-21.636-2.209-29.767,3.2-7.827,5.216-10.356,14.2-11.715,22.538C-42.2,326.76-42.8,333.365-40,339.238c1.948,4.079,5.4,7.507,7.791,11.414,8.314,13.593,2.436,30.356-6.571,43.629-4.223,6.228-9.129,12.172-12.391,18.795s-4.769,14.222-1.915,20.983c2.827,6.707,9.566,11.735,16.867,15.275,14.828,7.192,32.294,9.249,49.337,10.414,37.717,2.581,75.632,1.463,113.448.345,14-.415,28.051-.835,41.818-3,7.646-1.2,15.538-3.108,21.09-7.714,7.045-5.845,8.791-15.741,4.069-23.072-7.919-12.294-29.81-15.347-35.352-28.54-3.045-7.264.082-15.352,4.512-22.089,9.5-14.448,25.42-27.124,26.257-43.639.576-11.342-7.078-22.7-18.912-28.07-12.4-5.624-29.606-4.919-38.752,4.394C121.871,317.954,105.312,321.643,91.116,321.151Z" fill="#38b2a1" opacity="0.1"/>
    <ellipse id="Ellipse_473" data-name="Ellipse 473" cx="75.51" cy="10.215" rx="75.51" ry="10.215" transform="translate(-9.996 477.271)" fill="#38b2a1" opacity="0.1"/>
    <rect id="Rectangle_1345" data-name="Rectangle 1345" width="2.201" height="18.139" rx="0.569" transform="translate(105.089 365.473)" fill="#252a56"/>
    <rect id="Rectangle_1346" data-name="Rectangle 1346" width="1.235" height="5.972" rx="0.569" transform="translate(31.949 351.261)" fill="#252a56"/>
    <rect id="Rectangle_1347" data-name="Rectangle 1347" width="1.391" height="10.394" rx="0.569" transform="translate(31.904 362.196)" fill="#252a56"/>
    <rect id="Rectangle_1348" data-name="Rectangle 1348" width="1.324" height="10.483" rx="0.569" transform="translate(31.926 376.226)" fill="#252a56"/>
    <rect id="Rectangle_1349" data-name="Rectangle 1349" width="73.63" height="149.641" rx="9.686" transform="translate(32.647 331.527)" fill="#252a56"/>
    <path id="Path_6586" data-name="Path 6586" d="M95.89,335.415H87.444v1.016a4.814,4.814,0,0,1-4.814,4.814H55.766a4.814,4.814,0,0,1-4.816-4.812v-1.018H43.043a5.847,5.847,0,0,0-5.848,5.847h0V471.423a5.848,5.848,0,0,0,5.848,5.848H95.89a5.848,5.848,0,0,0,5.848-5.848V341.272a5.848,5.848,0,0,0-5.838-5.857Z" transform="translate(0.213 0.062)" fill="#38b2a1"/>
    <rect id="Rectangle_1350" data-name="Rectangle 1350" width="10.282" height="2.087" rx="0.961" transform="translate(62.359 335.996)" fill="#e0e2e7"/>
    <circle id="Ellipse_474" data-name="Ellipse 474" cx="1.185" cy="1.185" r="1.185" transform="translate(74.196 335.854)" fill="#e0e2e7"/>
    <path id="Path_6587" data-name="Path 6587" d="M131.768,324.964s-20.916-1.262-18.452,13.394a3.561,3.561,0,0,0,1.858,3.766s.038-1.085,2.147-.715a9.826,9.826,0,0,0,2.273.109,4.735,4.735,0,0,0,2.777-1.135h0s5.88-2.43,8.165-12.038c0,0,1.692-2.1,1.625-2.636l-3.53,1.508s1.207,2.546.248,4.663c0,0-.114-4.571-.792-4.472-.137.02-1.834.882-1.834.882s2.075,4.434.51,7.659c0,0,.593-5.465-1.158-7.338l-2.484,1.45s2.425,4.581.78,8.32c0,0,.422-5.734-1.3-7.967l-2.251,1.756s2.278,4.514.89,7.614c0,0-.182-6.672-1.377-7.176a13.828,13.828,0,0,0-2.27,2.449s1.56,3.279.591,5.008c0,0-.594-4.447-1.081-4.471,0,0-1.962,2.946-2.166,4.968a10.71,10.71,0,0,1,1.692-5.247,5.92,5.92,0,0,0-3.006,1.555s.306-2.081,3.49-2.265a13.676,13.676,0,0,1,2.055-2.37,12.875,12.875,0,0,0-5.085.586s1.689-1.965,5.666-1.07l2.223-1.816s-4.168-.569-5.937.059c0,0,2.035-1.739,6.536-.472l2.42-1.445a22.166,22.166,0,0,0-5.672-.5s2.236-1.2,6.382.1l1.739-.778s-2.6-.512-3.366-.594-.8-.29-.8-.29a9.028,9.028,0,0,1,4.891.544S131.83,325.2,131.768,324.964Z" fill="#38b2a1"/>
    <path id="Path_6588" data-name="Path 6588" d="M110.313,318.446s-9.44-.569-8.337,6.053a1.616,1.616,0,0,0,.84,1.7s.017-.5.971-.325a4.351,4.351,0,0,0,1.026.049,2.123,2.123,0,0,0,1.254-.516h0s2.658-1.1,3.692-5.441c0,0,.763-.946.733-1.19l-1.595.681a2.868,2.868,0,0,1,.117,2.107s-.053-2.065-.358-2.017c-.062,0-.83.4-.83.4s.939,2,.231,3.46c0,0,.269-2.469-.524-3.316l-1.123.665a4.956,4.956,0,0,1,.353,3.759s.191-2.591-.589-3.6l-1.016.8s1.029,2.04.4,3.441c0,0-.085-3.016-.624-3.245a6.243,6.243,0,0,0-1.026,1.108s.706,1.491.269,2.263c0,0-.269-2.009-.5-2.019a6.682,6.682,0,0,0-.979,2.236,4.843,4.843,0,0,1,.765-2.37,2.672,2.672,0,0,0-1.359.7s.139-.942,1.578-1.024a6.781,6.781,0,0,1,.929-1.073,5.828,5.828,0,0,0-2.3.266,2.58,2.58,0,0,1,2.559-.484l.993-.82a8.563,8.563,0,0,0-2.683.027s.919-.785,2.954-.214l1.093-.653a9.966,9.966,0,0,0-2.564-.221,3.937,3.937,0,0,1,2.884.045l.783-.351s-1.178-.231-1.523-.268-.362-.131-.362-.131a4.054,4.054,0,0,1,2.21.248A10.14,10.14,0,0,0,110.313,318.446Z" fill="#38b2a1"/>
    <ellipse id="Ellipse_475" data-name="Ellipse 475" cx="6.69" cy="1.13" rx="6.69" ry="1.13" transform="translate(153.39 484.455)" fill="#38b2a1" opacity="0.1"/>
    <ellipse id="Ellipse_476" data-name="Ellipse 476" cx="6.69" cy="1.13" rx="6.69" ry="1.13" transform="translate(-38.653 493.731)" fill="#38b2a1" opacity="0.1"/>
    <ellipse id="Ellipse_477" data-name="Ellipse 477" cx="6.69" cy="1.13" rx="6.69" ry="1.13" transform="translate(-12.776 499.794)" fill="#38b2a1" opacity="0.1"/>
    <ellipse id="Ellipse_478" data-name="Ellipse 478" cx="9.989" cy="1.689" rx="9.989" ry="1.689" transform="translate(135.447 496.008)" fill="#38b2a1"/>
    <path id="Path_6589" data-name="Path 6589" d="M149.567,494.935a2.9,2.9,0,0,0,.951-1.438,1.282,1.282,0,0,0-.665-1.463c-.611-.234-1.265.191-1.759.618a2.345,2.345,0,0,1-1.712.825,2.6,2.6,0,0,0,.808-2.437,1.037,1.037,0,0,0-.226-.5c-.338-.362-.954-.208-1.359.08-1.292.907-1.652,2.663-1.66,4.24a8.018,8.018,0,0,1-.024-1.739,1.8,1.8,0,0,0-.656-1.547,1.978,1.978,0,0,0-.994-.234,2.071,2.071,0,0,0-1.624.462,1.6,1.6,0,0,0,.064,1.988,6.331,6.331,0,0,0,1.682,1.346,3.73,3.73,0,0,1,1.2,1.145,1.043,1.043,0,0,1,.089.206h3.629A10.137,10.137,0,0,0,149.567,494.935Z" fill="#38b2a1"/>
    <path id="Path_6590" data-name="Path 6590" d="M-5.741,473.147s1.367,1.786-.628,4.471-3.639,4.969-2.981,6.651c0,0,3.011-5.006,5.465-5.076S-3.045,476.158-5.741,473.147Z" fill="#38b2a1"/>
    <path id="Path_6591" data-name="Path 6591" d="M-5.741,473.147a2.195,2.195,0,0,1,.279.561c2.389,2.808,3.664,5.428,1.366,5.493-2.139.062-4.7,3.888-5.321,4.854.02.074.045.146.072.221,0,0,3.011-5.006,5.465-5.075S-3.045,476.158-5.741,473.147Z" fill="#030504" opacity="0.1"/>
    <path id="Path_6592" data-name="Path 6592" d="M-3.2,475.423c0,.628-.07,1.137-.157,1.137s-.156-.509-.156-1.137.087-.333.174-.333S-3.2,474.794-3.2,475.423Z" fill="#ffc521"/>
    <path id="Path_6593" data-name="Path 6593" d="M-2.332,476.173c-.552.3-1.034.482-1.073.4s.37-.383.921-.683.335-.082.375,0S-1.781,475.872-2.332,476.173Z" fill="#ffc521"/>
    <path id="Path_6594" data-name="Path 6594" d="M-12.947,473.147s-1.366,1.786.628,4.471,3.64,4.969,2.981,6.651c0,0-3.008-5.006-5.465-5.076S-15.647,476.158-12.947,473.147Z" fill="#38b2a1"/>
    <path id="Path_6595" data-name="Path 6595" d="M-12.947,473.147a2.234,2.234,0,0,0-.281.561c-2.389,2.808-3.661,5.428-1.366,5.493,2.141.062,4.707,3.888,5.323,4.854a1.909,1.909,0,0,1-.074.221s-3.008-5.006-5.465-5.075S-15.647,476.158-12.947,473.147Z" fill="#030504" opacity="0.1"/>
    <path id="Path_6596" data-name="Path 6596" d="M-15.486,475.423c0,.628.072,1.137.159,1.137s.157-.509.157-1.137-.087-.333-.174-.333S-15.486,474.794-15.486,475.423Z" fill="#ffc521"/>
    <path id="Path_6597" data-name="Path 6597" d="M-16.355,476.173c.551.3,1.031.482,1.073.4s-.373-.383-.924-.683-.333-.082-.375,0S-16.907,475.872-16.355,476.173Z" fill="#ffc521"/>
    <path id="Path_6598" data-name="Path 6598" d="M-15.051,484.042s3.816-.119,4.968-.936,5.87-1.8,6.153-.484,5.736,6.53,1.429,6.565-10.011-.671-11.159-1.369S-15.051,484.042-15.051,484.042Z" fill="#989898"/>
    <path id="Path_6599" data-name="Path 6599" d="M-2.427,488.73c-4.307.035-10.011-.671-11.158-1.369-.872-.534-1.223-2.444-1.339-3.324h-.127s.248,3.076,1.389,3.776,6.851,1.4,11.158,1.369c1.242,0,1.672-.452,1.65-1.108C-1.028,488.477-1.5,488.723-2.427,488.73Z" fill="#030504" opacity="0.2"/>
    <circle id="Ellipse_473-2" data-name="Ellipse 473" cx="18.5" cy="18.5" r="18.5" transform="translate(51.408 387.477)" fill="#fff"/>
    <path id="Path_6585-2" data-name="Path 6585" d="M.186-17.391a.458.458,0,0,1-.372-.5,1.709,1.709,0,0,1,.062-.341,7.532,7.532,0,0,1,3.1-3.8,9.829,9.829,0,0,1,5.208-1.286,11.152,11.152,0,0,1,4.154.729,6.869,6.869,0,0,1,2.836,1.953,4.09,4.09,0,0,1,1.008,2.65,4.186,4.186,0,0,1-.434,1.953A5.513,5.513,0,0,1,14.71-14.6a17.681,17.681,0,0,1-1.628,1.364q-.961.775-1.519,1.286a4.411,4.411,0,0,0-.93,1.224,3.5,3.5,0,0,0-.372,1.643.694.694,0,0,1-.233.527.77.77,0,0,1-.542.217H6.231a.767.767,0,0,1-.589-.233.941.941,0,0,1-.217-.666,6.639,6.639,0,0,1,.45-2.527,6.722,6.722,0,0,1,1.069-1.829q.62-.729,1.581-1.659a13.637,13.637,0,0,0,1.24-1.317,1.7,1.7,0,0,0,.372-1.069,1.439,1.439,0,0,0-.589-1.178,2.23,2.23,0,0,0-1.426-.465,3.073,3.073,0,0,0-1.845.62A3.954,3.954,0,0,0,4.96-16.9a.845.845,0,0,1-.2.31.438.438,0,0,1-.294.093,1.3,1.3,0,0,1-.31-.031ZM11.067-.9a.853.853,0,0,1-.248.7,1.221,1.221,0,0,1-.775.2H5.363a.848.848,0,0,1-.636-.186.853.853,0,0,1-.17-.589v-4.65q0-.682.589-.682h5.363q.558,0,.558.62Z" transform="translate(61.408 417.477)" fill="#01ccb8"/>
  </g>
</svg>
